<?xml version="1.0" standalone="no"?>
<!DOCTYPE svg PUBLIC "-//W3C//DTD SVG 20010904//EN"
 "http://www.w3.org/TR/2001/REC-SVG-20010904/DTD/svg10.dtd">
<svg version="1.0" xmlns="http://www.w3.org/2000/svg"
 width="658.000000pt" height="528.000000pt" viewBox="0 0 658.000000 528.000000"
 preserveAspectRatio="xMidYMid meet">

<g transform="translate(0.000000,528.000000) scale(0.100000,-0.100000)"
fill="#000000" stroke="none">
<path d="M3301 4559 c-30 -5 -92 -23 -139 -39 -82 -29 -85 -29 -146 -15 -120
29 -286 13 -392 -36 -27 -13 -77 -45 -112 -71 -55 -42 -69 -48 -111 -48 -118
0 -273 -83 -332 -178 -21 -34 -44 -55 -85 -76 -71 -37 -131 -96 -173 -169 -22
-39 -39 -57 -52 -57 -45 0 -120 -62 -152 -125 -8 -16 -26 -72 -40 -123 -19
-72 -32 -100 -57 -125 -47 -46 -126 -169 -149 -231 -43 -115 -64 -371 -38
-467 10 -39 13 -85 9 -153 -4 -82 -2 -105 18 -158 12 -35 41 -88 64 -118 23
-31 59 -90 79 -132 86 -178 233 -261 462 -263 120 0 159 8 299 63 85 33 89 33
99 16 22 -42 118 -123 183 -155 l69 -34 235 1 c244 0 317 8 484 55 38 10 70
18 71 16 1 -1 12 -23 24 -49 12 -26 41 -63 63 -84 76 -68 288 -148 439 -164
52 -6 123 -14 159 -20 150 -22 306 -6 465 51 68 24 100 29 172 29 101 0 221
19 307 49 143 50 291 157 354 255 36 58 72 169 72 225 0 41 4 51 26 65 14 10
39 38 55 64 92 144 91 350 -2 487 -67 99 -89 146 -89 187 0 47 -41 192 -72
253 -11 22 -35 58 -53 80 -21 27 -36 60 -43 98 -17 87 -96 273 -137 323 -40
48 -78 78 -115 89 -14 4 -52 33 -85 65 -33 31 -71 65 -85 74 -14 9 -61 51
-105 94 -94 91 -184 152 -277 188 -36 14 -87 43 -111 65 -69 60 -139 89 -219
89 -48 0 -76 5 -100 19 -73 44 -216 62 -323 42 -31 -5 -58 -1 -122 21 -93 32
-206 43 -292 27z m262 -89 c31 -12 57 -25 57 -29 0 -4 -15 -12 -33 -19 -18 -6
-64 -30 -101 -53 -37 -22 -69 -39 -70 -37 -1 2 -25 33 -54 70 -29 37 -52 72
-52 77 0 28 170 23 253 -9z m-290 -60 c25 -28 59 -71 76 -96 52 -79 55 -195 7
-259 -64 -84 -87 -185 -67 -301 7 -38 34 -135 62 -216 55 -164 71 -256 46
-276 -12 -11 -26 -2 -83 53 -53 50 -75 65 -94 63 -45 -5 -35 -34 39 -104 86
-81 127 -157 140 -260 16 -126 -12 -302 -65 -405 -25 -51 -99 -139 -115 -139
-15 0 -69 82 -79 122 -6 21 -15 94 -20 162 -10 145 -35 209 -98 250 -53 35
-143 50 -187 31 -43 -17 -56 -56 -30 -85 23 -25 51 -25 92 0 40 24 68 16 105
-29 31 -36 45 -96 52 -222 6 -103 20 -152 69 -232 25 -41 28 -51 16 -62 -26
-26 -136 -74 -238 -104 -191 -57 -308 -142 -397 -289 -6 -10 -59 37 -80 70
-23 36 -24 43 -14 96 10 51 9 65 -9 117 -28 79 -27 128 4 181 29 49 70 81 114
90 l31 7 0 -76 c0 -61 3 -76 17 -81 26 -10 35 8 41 83 l5 71 81 0 c51 -1 90
-6 106 -15 36 -20 73 -18 98 5 27 26 30 80 5 102 -40 34 -71 30 -119 -14 -18
-16 -34 -18 -95 -16 -69 3 -74 5 -80 28 -32 113 -43 143 -74 194 -29 48 -33
61 -23 73 23 29 126 92 213 132 116 54 209 145 245 241 45 120 29 237 -46 336
-19 24 -34 46 -34 49 0 2 18 9 40 15 52 14 160 17 238 7 l62 -9 0 26 c0 16 -8
30 -22 37 -27 15 -211 17 -325 5 -92 -10 -90 -10 -246 82 -75 45 -78 48 -73
77 24 119 124 289 211 357 135 105 323 118 400 27 49 -59 43 -114 -16 -145
-40 -20 -101 -14 -175 20 -38 17 -55 21 -63 13 -42 -42 49 -98 169 -104 96 -6
135 13 169 82 22 44 23 51 12 94 -15 55 -49 102 -96 131 -42 26 -44 35 -7 48
47 18 59 13 105 -38z m-333 31 c0 -5 -17 -11 -37 -15 -86 -14 -204 -97 -274
-192 -38 -52 -110 -190 -122 -233 -9 -34 -29 -24 -75 35 -54 69 -90 85 -210
93 l-93 6 41 43 c52 54 128 92 196 99 53 6 54 5 54 -20 0 -36 26 -42 47 -11
66 95 154 157 262 186 69 18 211 24 211 9z m1030 -14 l55 -22 3 -53 c2 -28 0
-52 -3 -52 -3 0 -32 18 -65 40 -60 41 -162 90 -186 90 -8 0 -14 5 -14 10 0 20
151 11 210 -13z m274 -71 c98 -53 128 -146 87 -269 -21 -62 -54 -117 -69 -117
-4 0 -22 31 -40 68 -18 37 -57 100 -87 141 l-54 73 6 62 c3 33 11 64 17 68 18
12 99 -3 140 -26z m-408 -21 c42 -20 89 -59 165 -135 91 -91 112 -119 146
-191 22 -46 43 -91 46 -101 7 -20 -127 -122 -197 -150 -46 -18 -49 -18 -149 4
-172 36 -273 26 -359 -34 -61 -42 -20 -73 51 -38 81 39 202 35 363 -12 43 -13
41 -18 -14 -59 -33 -23 -51 -29 -92 -29 -28 0 -66 4 -84 9 -25 8 -35 6 -48 -7
-15 -15 -15 -17 5 -33 11 -9 52 -23 89 -29 86 -16 122 -5 199 57 l56 46 64
-32 c34 -17 63 -36 63 -41 0 -6 -14 -40 -30 -75 -85 -182 -79 -340 17 -424 64
-57 127 -76 246 -75 l97 2 0 -42 c0 -37 -4 -43 -36 -61 -44 -24 -60 -53 -74
-141 -16 -99 -24 -114 -59 -114 -42 0 -139 38 -150 58 -5 9 -16 52 -25 94 -8
43 -26 95 -40 116 -53 84 -144 135 -242 136 -50 1 -68 -4 -102 -26 -23 -16
-46 -28 -52 -28 -24 0 -60 -49 -60 -83 0 -43 17 -65 56 -73 24 -5 37 0 60 19
24 21 29 32 28 67 -1 36 2 43 25 52 57 21 158 -16 209 -77 28 -34 42 -70 57
-142 l6 -32 -48 -3 c-40 -3 -48 -6 -48 -23 0 -17 9 -21 56 -26 45 -5 66 -13
97 -40 l40 -33 -82 -29 c-44 -16 -117 -42 -161 -58 -44 -16 -100 -29 -124 -29
l-44 0 7 69 c5 54 3 71 -9 81 -23 19 -45 -5 -45 -49 0 -20 -10 -56 -22 -80
-21 -40 -29 -46 -99 -71 -118 -43 -191 -95 -265 -191 l-47 -61 -24 26 c-25 27
-47 33 -58 16 -3 -5 6 -32 22 -59 l27 -50 -29 -62 c-17 -34 -39 -68 -50 -75
-51 -32 -482 -48 -550 -20 -46 19 -45 41 4 106 58 78 151 143 231 163 l26 6
-1 -82 c0 -76 2 -82 21 -85 24 -3 34 19 34 79 0 63 34 97 150 155 169 85 263
173 330 309 56 113 62 158 61 401 -1 214 -1 222 22 255 51 77 166 124 241 99
37 -12 39 -16 36 -61 -2 -37 31 -72 68 -72 38 0 59 16 67 53 8 38 -9 69 -50
86 -19 7 -36 18 -40 24 -12 20 -80 42 -130 42 -55 1 -124 -25 -178 -66 l-34
-26 -7 46 c-3 25 -29 114 -58 197 -49 141 -52 159 -53 247 0 77 4 102 21 134
11 22 25 41 30 43 5 2 18 -13 28 -32 18 -33 48 -46 60 -27 3 5 -4 33 -15 63
-20 51 -20 54 -3 66 32 23 87 33 191 33 90 0 104 2 112 19 17 30 -10 43 -101
48 -58 4 -101 0 -144 -11 -34 -9 -67 -16 -73 -16 -7 0 -11 23 -11 63 1 61 1
62 43 94 79 59 123 74 208 70 59 -3 91 -10 135 -32z m694 -149 c41 -25 102
-70 134 -101 l59 -57 -27 -21 c-17 -14 -32 -41 -41 -75 -18 -72 -51 -118 -101
-142 -32 -16 -61 -20 -146 -20 l-106 0 -4 53 c-3 45 1 58 25 93 16 23 40 47
53 54 29 16 37 36 20 52 -11 10 -11 18 1 46 8 18 17 62 20 98 7 79 12 80 113
20z m-2222 -140 c15 -8 54 -45 88 -83 58 -65 61 -70 67 -135 l6 -67 -30 -6
c-39 -9 -128 3 -156 21 -17 11 -23 24 -23 53 0 77 -52 77 -64 1 -5 -32 -11
-41 -33 -46 -49 -13 -93 28 -108 99 -8 39 -46 34 -57 -8 -6 -26 -14 -32 -59
-42 -60 -15 -69 -11 -69 26 0 67 95 162 188 187 66 18 216 18 250 0z m2512
-96 c60 -31 102 -102 67 -116 -7 -2 -39 5 -71 16 -33 11 -67 20 -78 20 -23 0
-25 46 -2 78 19 27 34 28 84 2z m-2207 -166 c63 -32 107 -62 107 -74 0 -4 -23
-25 -51 -46 l-51 -37 -19 24 c-32 41 -64 159 -44 159 3 0 29 -12 58 -26z
m1613 13 c9 -23 -14 -139 -32 -158 -16 -17 -18 -17 -73 13 -31 17 -58 33 -60
35 -8 5 25 37 83 80 63 46 74 50 82 30z m621 -23 c29 -14 66 -41 82 -61 25
-31 32 -34 45 -23 21 17 20 32 -5 64 -25 32 -18 46 25 46 41 0 85 -41 120
-113 40 -79 39 -81 -62 -99 -49 -9 -120 -29 -158 -46 l-69 -31 -13 32 c-20 48
-50 67 -105 67 -60 0 -127 -32 -127 -61 0 -28 25 -34 64 -15 40 19 77 21 94 4
17 -17 15 -58 -8 -148 -37 -146 -79 -217 -157 -272 -25 -16 -46 -28 -49 -25
-2 2 -13 36 -24 75 -11 39 -31 97 -46 129 -20 45 -24 67 -19 98 12 71 11 89
-6 93 -8 1 -21 -9 -29 -23 -7 -14 -16 -25 -19 -25 -3 0 -34 31 -68 69 l-63 69
22 54 c12 29 25 57 29 62 4 4 68 12 141 16 144 8 161 13 222 68 36 32 42 34
85 28 25 -3 70 -18 98 -32z m-3029 10 c18 -12 21 -19 11 -30 -14 -17 -5 -44
14 -44 8 0 22 9 33 21 25 27 87 59 116 59 12 0 36 -14 54 -31 34 -33 101 -54
145 -44 15 3 54 -1 87 -9 33 -9 94 -16 136 -16 l75 0 36 -56 36 -57 -34 -36
c-19 -20 -49 -56 -66 -80 l-31 -44 -11 32 c-7 19 -18 31 -29 31 -28 0 -31 -13
-19 -71 9 -43 8 -76 -6 -175 l-18 -123 -57 30 c-83 44 -128 93 -174 189 -31
66 -40 97 -41 140 l0 55 40 -1 c22 -1 56 -5 76 -9 30 -6 37 -4 43 11 4 10 1
23 -6 30 -14 15 -119 44 -156 44 -36 0 -72 -43 -72 -85 l0 -36 -57 30 c-83 44
-166 70 -245 78 -67 6 -68 6 -62 32 33 141 113 214 182 165z m1044 -182 c25
-26 51 -65 58 -87 17 -52 8 -153 -20 -210 -30 -62 -114 -146 -178 -179 -61
-31 -62 -31 -62 -8 0 10 -5 23 -11 29 -20 20 -39 3 -39 -33 0 -30 -7 -39 -67
-84 -38 -27 -72 -50 -76 -50 -12 0 -34 59 -41 111 -16 107 39 267 123 362 24
26 47 47 51 47 15 0 60 -53 91 -107 29 -50 52 -69 70 -57 25 15 2 75 -62 161
-22 29 -39 57 -39 62 0 15 112 90 136 90 13 1 39 -18 66 -47z m2315 -98 c9
-15 19 -53 21 -85 4 -56 3 -60 -31 -94 -28 -28 -43 -35 -75 -35 -53 0 -72 -8
-72 -31 0 -20 28 -39 58 -39 26 0 34 -35 21 -84 -8 -28 -21 -44 -56 -67 -55
-34 -109 -47 -132 -30 -47 34 -85 35 -116 5 -20 -20 -19 -73 2 -96 19 -21 79
-24 102 -5 9 8 44 21 79 30 126 34 184 96 188 201 3 58 5 62 45 97 24 20 49
35 56 32 7 -3 25 -30 40 -60 26 -54 26 -56 8 -69 -10 -8 -24 -14 -30 -14 -17
0 -34 -21 -28 -36 3 -9 21 -14 49 -14 53 0 59 -10 58 -95 -1 -63 -18 -107 -54
-140 -18 -17 -41 -21 -139 -25 -134 -7 -150 -14 -208 -93 -39 -53 -113 -107
-148 -107 -15 0 -33 17 -59 54 -37 54 -140 158 -185 187 -19 12 -25 26 -29 71
-4 55 -4 55 34 78 93 56 159 143 193 256 26 89 54 131 111 166 51 32 175 67
237 67 35 1 46 -4 60 -25z m-3397 1 c79 -21 176 -73 213 -114 18 -20 45 -66
61 -103 l28 -66 -40 -37 c-23 -20 -48 -55 -57 -79 -12 -32 -24 -45 -49 -54
-18 -7 -38 -23 -44 -36 -7 -15 -24 -27 -50 -33 -75 -19 -110 0 -134 72 -9 29
-19 40 -33 40 -38 0 -29 -60 23 -157 2 -4 -30 -23 -70 -42 -40 -19 -101 -58
-135 -86 -34 -27 -67 -50 -73 -50 -23 0 -40 69 -40 160 l0 91 35 -7 c29 -5 35
-3 35 12 0 9 -7 26 -17 36 -15 17 -15 19 2 38 10 11 26 22 37 26 13 4 18 13
16 27 -4 27 -39 34 -58 12 -22 -26 -33 -17 -25 23 8 46 66 167 99 207 l24 30
11 -40 c16 -62 64 -129 104 -148 44 -21 120 -22 137 -2 21 26 4 45 -39 45 -76
0 -147 95 -139 186 5 63 64 79 178 49z m2593 -208 c43 -88 84 -223 72 -235
-14 -15 -136 -13 -187 2 -60 17 -122 73 -134 121 -17 70 14 208 67 295 l22 35
58 -63 c38 -41 73 -96 102 -155z m-2203 -175 c19 -16 53 -39 75 -52 62 -36
126 -90 137 -116 10 -22 3 -32 -78 -116 -49 -51 -107 -119 -128 -150 -22 -32
-46 -58 -53 -58 -26 0 -119 103 -137 152 -20 51 -44 68 -62 43 -15 -20 -2 -73
31 -131 24 -42 107 -124 125 -124 17 0 11 -28 -16 -83 -40 -78 -77 -120 -136
-153 -50 -27 -60 -29 -163 -29 -77 0 -120 5 -144 16 l-34 15 49 32 c28 17 61
43 75 58 13 14 39 32 58 40 19 8 40 22 47 32 19 24 17 72 -3 94 -41 45 -123 1
-123 -66 0 -28 -8 -41 -41 -70 -59 -50 -107 -71 -138 -60 -38 14 -86 85 -106
157 -17 65 -14 122 6 115 6 -2 34 -33 63 -68 28 -36 60 -66 69 -68 22 -4 34
26 18 47 -57 79 -66 129 -31 173 22 28 102 82 138 93 20 6 22 3 22 -27 0 -42
21 -74 44 -65 12 5 16 19 16 52 0 35 6 52 23 69 25 25 101 46 166 46 54 0 94
41 88 90 -7 57 45 140 87 140 12 0 37 -13 56 -28z m3279 -291 c92 -116 105
-282 33 -416 -29 -54 -67 -71 -92 -41 -10 13 -9 19 9 34 15 11 20 23 16 35 -9
21 -38 22 -55 2 -7 -8 -19 -15 -28 -15 -25 0 -82 41 -82 59 0 32 -39 71 -71
71 -35 0 -69 -31 -69 -64 0 -28 51 -76 80 -76 17 0 64 -26 115 -64 19 -14 16
-15 -31 -16 -29 0 -89 7 -135 16 -46 9 -120 19 -164 22 l-80 7 -32 93 -32 93
27 12 c15 6 71 12 124 12 99 1 126 10 115 39 -4 9 -26 17 -61 21 -31 4 -56 10
-56 14 0 3 18 27 41 53 49 58 89 71 188 62 l71 -7 6 -36 c17 -107 64 -178 102
-155 24 16 25 30 4 51 -21 20 -42 93 -42 144 0 30 40 89 61 89 4 0 21 -18 38
-39z m-2962 -32 c21 -34 36 -76 40 -107 l6 -50 -53 -16 c-73 -22 -213 -40
-244 -32 -26 6 -26 7 -10 39 43 84 182 231 213 225 8 -2 30 -28 48 -59z m2037
31 c47 -18 196 -171 196 -202 0 -11 -306 -5 -317 6 -8 8 17 125 34 158 12 25
38 47 55 48 4 0 18 -4 32 -10z m247 -307 c13 -36 41 -154 37 -159 -9 -9 -151
-23 -292 -29 l-158 -7 14 21 c30 43 70 64 127 69 31 3 59 9 63 15 12 19 -10
44 -43 51 -72 14 -157 -32 -223 -123 -33 -45 -40 -49 -103 -63 -38 -8 -69 -14
-71 -12 -2 1 6 19 17 39 20 38 19 60 -3 68 -18 7 -26 0 -70 -66 -37 -54 -74
-83 -132 -101 -18 -5 -24 -1 -32 24 -6 16 -16 30 -21 30 -14 0 -31 -34 -31
-63 0 -21 -15 -30 -147 -85 -215 -89 -398 -149 -423 -140 -16 6 66 150 119
210 29 32 76 75 105 94 65 44 185 82 295 93 67 7 114 21 211 60 221 89 280
100 533 101 l217 0 11 -27z m-2431 1 c0 -1 -7 -18 -15 -37 -8 -20 -15 -58 -15
-85 0 -27 7 -69 15 -92 25 -70 20 -122 -14 -154 -38 -36 -60 -31 -89 22 -15
27 -30 42 -43 42 -31 0 -34 -29 -9 -75 13 -23 20 -47 16 -53 -4 -7 -32 -19
-63 -28 -69 -20 -73 -16 -73 85 0 90 19 168 71 286 l40 90 89 0 c50 0 90 -1
90 -1z m2792 -240 c40 -8 109 -18 152 -22 85 -7 108 -24 59 -43 -19 -7 -72 -8
-161 -4 -118 6 -140 10 -185 34 -28 14 -52 32 -55 39 -6 18 99 16 190 -4z
m-3147 -124 c0 -138 10 -129 -116 -109 -127 20 -250 93 -297 177 -26 46 -23
48 35 28 92 -32 264 -28 332 9 14 8 31 14 36 15 6 0 10 -46 10 -120z m2921 65
c38 -25 85 -49 104 -54 19 -5 102 -12 183 -15 81 -3 152 -8 158 -11 12 -8 -7
-45 -23 -45 -13 0 -140 -50 -148 -58 -12 -12 76 9 111 28 51 26 52 26 34 -10
-10 -20 -35 -40 -70 -57 -30 -15 -55 -31 -55 -36 0 -5 8 -6 18 -2 9 4 26 9 37
12 17 4 17 2 -5 -17 -62 -52 -174 -120 -198 -120 -5 0 -7 11 -4 25 3 20 0 25
-16 25 -15 0 -21 -9 -26 -35 -5 -26 -14 -39 -34 -46 -53 -21 -178 -38 -279
-39 -56 0 -113 -4 -127 -10 -18 -7 -33 -5 -53 5 -69 35 -242 78 -348 86 -118
10 -153 18 -228 56 -57 28 -72 25 -27 -7 53 -38 136 -60 258 -69 72 -6 136
-17 167 -29 28 -10 80 -27 118 -37 58 -16 65 -20 50 -30 -33 -23 -149 -45
-234 -45 -172 0 -359 89 -502 239 -51 54 -52 64 -2 31 17 -11 36 -20 44 -20
21 0 -4 25 -56 55 -24 15 -42 29 -40 32 9 8 111 -25 206 -66 98 -42 141 -56
141 -43 0 5 -72 38 -159 73 -149 59 -176 78 -114 79 13 0 63 -16 113 -36 112
-45 140 -40 33 5 -43 19 -82 39 -88 44 -12 11 81 0 105 -13 28 -15 277 -61
436 -80 176 -22 204 -24 204 -12 0 5 -82 19 -183 31 -231 28 -517 86 -517 105
0 9 9 8 195 -24 92 -15 164 -20 308 -20 104 0 187 4 187 9 0 5 -100 11 -222
14 -158 3 -249 9 -310 22 -102 20 -120 40 -25 28 93 -12 229 -9 252 6 17 10 7
11 -60 7 -44 -2 -109 -1 -145 3 l-65 7 55 16 c170 51 265 67 470 77 307 16
298 17 376 -34z m-1248 -277 c60 -76 142 -154 201 -194 41 -27 43 -29 21 -32
-54 -8 -99 16 -136 74 -42 65 -66 73 -31 9 19 -33 22 -45 12 -45 -28 0 -83 61
-121 135 -38 76 -54 98 -54 73 0 -19 49 -120 67 -141 9 -9 14 -20 11 -23 -8
-8 -80 30 -99 52 -19 22 -49 78 -49 92 0 8 102 59 122 61 3 1 29 -27 56 -61z"/>
<path d="M2872 4034 c-46 -32 -13 -124 46 -124 31 0 62 35 62 70 0 58 -60 88
-108 54z"/>
<path d="M3102 3548 c-7 -7 -12 -21 -12 -33 0 -12 5 -26 12 -33 7 -7 21 -12
33 -12 12 0 26 5 33 12 7 7 12 21 12 33 0 12 -5 26 -12 33 -7 7 -21 12 -33 12
-12 0 -26 -5 -33 -12z"/>
<path d="M3771 4024 c-12 -15 -21 -30 -21 -35 0 -24 26 -59 52 -70 25 -10 33
-9 56 8 35 26 41 74 13 102 -30 30 -75 27 -100 -5z"/>
<path d="M4398 2201 c-77 -17 -109 -31 -72 -31 40 0 194 32 194 41 0 13 -33
10 -122 -10z"/>
<path d="M4678 2210 c-78 -10 -108 -18 -108 -31 0 -11 6 -11 50 1 19 5 80 11
135 14 55 3 102 6 105 6 3 0 -2 5 -10 10 -17 11 -75 11 -172 0z"/>
<path d="M5140 2113 c-43 -9 -91 -12 -140 -9 -184 14 -340 18 -340 8 0 -6 55
-12 133 -16 72 -4 163 -9 201 -12 69 -6 240 19 261 37 13 13 -40 9 -115 -8z"/>
<path d="M4710 2032 c0 -9 227 -23 239 -15 2 2 1 6 -3 11 -12 11 -236 15 -236
4z"/>
<path d="M4100 1981 c0 -6 1 -11 3 -11 3 0 279 -47 385 -66 81 -14 116 -14
101 0 -4 4 -87 20 -289 55 -168 30 -200 33 -200 22z"/>
<path d="M5033 1973 c-46 -2 -83 -8 -83 -13 0 -11 148 -14 174 -4 15 6 13 26
-2 22 -4 -1 -44 -4 -89 -5z"/>
<path d="M4660 1962 c0 -11 31 -16 154 -28 45 -4 66 -2 62 4 -3 6 -32 13 -64
17 -31 3 -78 8 -104 11 -30 4 -48 2 -48 -4z"/>
<path d="M4100 1931 c0 -11 6 -13 120 -40 47 -11 123 -29 170 -40 135 -32 340
-52 340 -33 0 5 -44 12 -98 15 -62 4 -168 22 -292 51 -107 25 -205 48 -217 51
-13 3 -23 1 -23 -4z"/>
<path d="M3836 1902 c-7 -11 21 -30 110 -79 67 -36 74 -38 74 -23 0 5 -26 23
-57 39 -32 17 -72 40 -90 51 -17 11 -34 17 -37 12z"/>
<path d="M4640 1893 c0 -11 69 -23 128 -23 62 0 22 18 -55 26 -47 4 -73 3 -73
-3z"/>
<path d="M4130 1773 c0 -6 33 -13 73 -16 39 -3 97 -13 127 -21 51 -13 71 -14
58 0 -23 23 -258 56 -258 37z"/>
<path d="M5313 1551 c-38 -5 -46 -12 -77 -61 -26 -40 -31 -56 -21 -58 29 -7
133 66 156 109 11 21 14 20 -58 10z"/>
<path d="M4922 1508 c-20 -20 -14 -56 13 -74 22 -14 30 -15 50 -4 30 16 37 43
18 69 -16 23 -62 28 -81 9z"/>
<path d="M790 1304 l0 -205 43 3 42 3 5 128 5 128 31 -33 c16 -18 65 -77 108
-131 l79 -98 46 3 46 3 3 189 c2 130 -1 193 -9 202 -6 8 -26 14 -45 14 -42 0
-47 -15 -43 -140 2 -54 1 -101 -2 -105 -4 -3 -52 51 -109 120 l-102 125 -49 0
-49 0 0 -206z"/>
<path d="M2793 1502 c-18 -11 -30 -377 -13 -397 10 -12 41 -15 154 -15 77 0
147 4 154 9 8 5 12 21 10 37 l-3 29 -112 3 c-109 3 -113 3 -119 27 -14 55 -6
60 96 65 l95 5 0 30 0 30 -65 2 c-36 2 -80 5 -98 9 -32 5 -33 7 -30 47 l3 42
109 5 c89 4 111 8 120 23 8 12 8 22 0 35 -10 15 -30 17 -150 19 -76 2 -144 0
-151 -5z"/>
<path d="M1350 1368 c-73 -50 -99 -131 -62 -198 39 -73 159 -102 242 -60 46
24 49 34 16 55 -18 12 -30 13 -50 5 -15 -5 -40 -10 -55 -10 -31 0 -85 36 -76
51 4 5 58 9 122 9 l116 0 -6 40 c-11 84 -67 130 -158 130 -42 0 -65 -6 -89
-22z m134 -59 c14 -11 24 -25 21 -30 -7 -10 -135 -13 -135 -2 0 16 45 53 65
53 12 0 34 -9 49 -21z"/>
<path d="M1677 1383 c-11 -11 -8 -210 4 -236 23 -52 127 -76 177 -42 19 14 24
14 46 0 15 -10 33 -14 46 -10 20 6 20 12 18 148 l-3 142 -37 3 c-35 3 -37 1
-42 -30 -4 -18 -7 -62 -9 -97 -2 -57 -5 -66 -30 -85 -26 -19 -30 -19 -55 -5
-25 14 -27 19 -30 94 -3 117 -6 125 -46 125 -18 0 -36 -3 -39 -7z"/>
<path d="M2077 1383 c-4 -3 -7 -69 -7 -145 l0 -139 43 3 42 3 3 80 c4 96 24
128 80 123 26 -2 39 3 53 21 23 28 24 47 3 55 -25 10 -84 7 -106 -5 -14 -8
-23 -8 -31 0 -12 12 -70 15 -80 4z"/>
<path d="M2412 1370 c-71 -44 -95 -143 -49 -211 85 -128 309 -70 311 81 1 55
-20 91 -74 128 -44 30 -140 31 -188 2z m151 -78 c23 -20 23 -84 -1 -105 -10
-9 -32 -19 -49 -23 -41 -8 -86 30 -86 74 0 70 81 102 136 54z"/>
<path d="M3167 1384 c-4 -4 16 -36 44 -71 l50 -64 -43 -55 c-78 -100 -77 -94
-27 -94 37 0 49 6 87 43 l43 42 35 -42 c32 -39 40 -43 80 -43 24 0 44 4 44 9
0 5 -22 37 -50 71 -27 34 -50 65 -50 68 0 3 21 32 46 64 25 32 42 62 39 68 -3
5 -21 10 -39 10 -26 0 -41 -9 -70 -42 l-38 -42 -35 42 c-29 36 -40 42 -72 42
-21 0 -41 -3 -44 -6z"/>
<path d="M3555 1378 c-8 -27 -14 -384 -6 -396 5 -8 22 -12 42 -10 l34 3 3 73
3 72 29 -15 c42 -21 118 -19 158 5 97 59 96 199 -2 259 -37 23 -123 29 -158
10 -14 -8 -23 -8 -31 0 -15 15 -67 14 -72 -1z m195 -68 c19 0 50 -45 50 -71 0
-44 -31 -74 -78 -74 -57 0 -84 27 -80 79 3 36 8 43 38 59 19 9 41 15 48 12 8
-3 18 -5 22 -5z"/>
<path d="M3966 1375 c-3 -9 -6 -74 -6 -145 0 -121 1 -129 21 -135 11 -4 31 -4
45 -1 23 6 24 10 24 85 0 65 4 83 21 105 17 22 28 27 56 24 25 -2 39 3 49 17
34 46 1 75 -69 61 -39 -8 -52 -8 -98 0 -28 5 -38 2 -43 -11z"/>
<path d="M4295 1371 c-45 -27 -63 -52 -74 -99 -23 -106 44 -182 161 -182 53 0
118 25 126 48 2 6 -8 18 -23 28 -21 14 -31 15 -51 5 -55 -25 -124 -5 -124 35
0 11 22 14 116 14 l117 0 -6 40 c-6 50 -37 93 -81 114 -46 22 -123 21 -161 -3z
m123 -57 c42 -29 28 -44 -43 -44 -36 0 -65 4 -65 9 0 14 50 51 69 51 9 0 27
-7 39 -16z"/>
<path d="M4638 1373 c-15 -10 -33 -30 -39 -46 -20 -47 4 -77 81 -105 35 -13
68 -28 72 -35 18 -29 -22 -35 -97 -15 -41 11 -46 10 -59 -7 -13 -17 -13 -22 0
-36 41 -46 174 -51 219 -9 19 18 25 34 25 66 0 50 -10 60 -93 89 -38 13 -62
27 -62 35 0 21 39 24 75 5 33 -17 44 -14 60 16 26 47 -120 80 -182 42z"/>
<path d="M4924 1377 c-2 -7 -3 -74 -2 -148 l3 -134 28 -3 c52 -6 57 8 57 147
0 85 -4 131 -12 139 -16 16 -67 15 -74 -1z"/>
<path d="M5157 1369 c-105 -55 -103 -204 3 -260 48 -26 135 -25 178 1 44 27
72 76 72 128 0 56 -21 95 -67 127 -48 32 -129 34 -186 4z m147 -79 c48 -47 -1
-139 -68 -126 -55 11 -82 67 -55 117 22 42 85 46 123 9z"/>
<path d="M5493 1384 c-10 -4 -13 -43 -13 -145 0 -138 0 -139 24 -145 55 -14
61 -6 66 92 3 56 10 97 19 108 17 20 74 21 91 0 8 -8 16 -55 19 -107 l6 -92
35 0 35 0 3 113 3 113 -36 36 c-34 34 -37 35 -92 29 -78 -8 -83 -8 -118 -2
-16 3 -36 3 -42 0z"/>
</g>
</svg>
